<svg xmlns="http://www.w3.org/2000/svg" width="1200" height="750" viewBox="0 0 1200 750" role="img" aria-label="Aurora dashboard preview">
  <rect width="1200" height="750" fill="#f7f9fc"/>
  <!-- sidebar -->
  <rect x="0" y="0" width="220" height="750" fill="#ffffff"/>
  <rect x="28" y="28" width="24" height="16" rx="5" fill="#3b82f6"/>
  <rect x="64" y="30" width="80" height="12" rx="6" fill="#0b1220"/>
  <rect x="24" y="80" width="172" height="34" rx="8" fill="#dbeafe"/>
  <rect x="40" y="90" width="90" height="14" rx="7" fill="#2563eb"/>
  <g fill="#5b6b82">
    <rect x="40" y="134" width="110" height="12" rx="6"/>
    <rect x="40" y="172" width="110" height="12" rx="6"/>
    <rect x="40" y="210" width="110" height="12" rx="6"/>
  </g>
  <!-- topbar -->
  <rect x="252" y="30" width="180" height="22" rx="8" fill="#0b1220"/>
  <rect x="252" y="62" width="260" height="12" rx="6" fill="#5b6b82"/>
  <rect x="1060" y="32" width="110" height="32" rx="10" fill="#3b82f6"/>
  <!-- stat cards -->
  <g>
    <rect x="252" y="110" width="210" height="110" rx="14" fill="#ffffff" stroke="#e2e8f0" stroke-width="2"/>
    <rect x="486" y="110" width="210" height="110" rx="14" fill="#ffffff" stroke="#e2e8f0" stroke-width="2"/>
    <rect x="720" y="110" width="210" height="110" rx="14" fill="#ffffff" stroke="#e2e8f0" stroke-width="2"/>
    <rect x="954" y="110" width="216" height="110" rx="14" fill="#ffffff" stroke="#e2e8f0" stroke-width="2"/>
  </g>
  <g fill="#5b6b82">
    <rect x="276" y="134" width="70" height="10" rx="5"/>
    <rect x="510" y="134" width="70" height="10" rx="5"/>
    <rect x="744" y="134" width="70" height="10" rx="5"/>
    <rect x="978" y="134" width="70" height="10" rx="5"/>
  </g>
  <g fill="#0b1220">
    <rect x="276" y="156" width="100" height="24" rx="6"/>
    <rect x="510" y="156" width="100" height="24" rx="6"/>
    <rect x="744" y="156" width="100" height="24" rx="6"/>
    <rect x="978" y="156" width="100" height="24" rx="6"/>
  </g>
  <g fill="#10b981">
    <rect x="276" y="190" width="52" height="10" rx="5"/>
    <rect x="510" y="190" width="52" height="10" rx="5"/>
    <rect x="744" y="190" width="52" height="10" rx="5"/>
  </g>
  <!-- table card -->
  <rect x="252" y="248" width="918" height="430" rx="16" fill="#ffffff" stroke="#e2e8f0" stroke-width="2"/>
  <rect x="280" y="280" width="160" height="16" rx="8" fill="#0b1220"/>
  <g stroke="#e2e8f0" stroke-width="2">
    <line x1="280" y1="340" x2="1142" y2="340"/>
    <line x1="280" y1="400" x2="1142" y2="400"/>
    <line x1="280" y1="460" x2="1142" y2="460"/>
    <line x1="280" y1="520" x2="1142" y2="520"/>
  </g>
  <g fill="#5b6b82">
    <rect x="280" y="356" width="120" height="12" rx="6"/>
    <rect x="280" y="416" width="120" height="12" rx="6"/>
    <rect x="280" y="476" width="120" height="12" rx="6"/>
    <rect x="640" y="356" width="80" height="12" rx="6"/>
    <rect x="640" y="416" width="80" height="12" rx="6"/>
    <rect x="640" y="476" width="80" height="12" rx="6"/>
  </g>
  <g fill="#dbeafe">
    <rect x="980" y="350" width="70" height="22" rx="11"/>
    <rect x="980" y="410" width="70" height="22" rx="11"/>
    <rect x="980" y="470" width="70" height="22" rx="11"/>
  </g>
</svg>
